<mxfile host="app.diagrams.net" modified="2021-06-03T08:06:16.085Z" agent="5.0 (Macintosh; Intel Mac OS X 10_15_7) AppleWebKit/537.36 (KHTML, like Gecko) Chrome/90.0.4430.212 Safari/537.36" etag="f6rWolovegTGFmPhwKsE" version="14.7.4" type="github">
  <diagram id="owaOrWnZIhFuhX-osFG8" name="Page-1">
    <mxGraphModel dx="1298" dy="808" grid="1" gridSize="10" guides="1" tooltips="1" connect="1" arrows="1" fold="1" page="1" pageScale="1" pageWidth="827" pageHeight="1169" math="0" shadow="0">
      <root>
        <mxCell id="0" />
        <mxCell id="1" parent="0" />
        <mxCell id="TIjSOUkr8oIotX3kNbCN-1" value="后台" style="rounded=1;whiteSpace=wrap;html=1;fillColor=#ffe6cc;strokeColor=#d79b00;" vertex="1" parent="1">
          <mxGeometry x="150" y="50" width="120" height="60" as="geometry" />
        </mxCell>
        <mxCell id="TIjSOUkr8oIotX3kNbCN-2" value="shizi-activity" style="rounded=1;whiteSpace=wrap;html=1;fillColor=#f8cecc;strokeColor=#b85450;" vertex="1" parent="1">
          <mxGeometry x="440" y="50" width="120" height="60" as="geometry" />
        </mxCell>
        <mxCell id="TIjSOUkr8oIotX3kNbCN-3" value="shizi-permissions" style="rounded=1;whiteSpace=wrap;html=1;fillColor=#e1d5e7;strokeColor=#9673a6;" vertex="1" parent="1">
          <mxGeometry x="680" y="50" width="120" height="60" as="geometry" />
        </mxCell>
        <mxCell id="TIjSOUkr8oIotX3kNbCN-6" style="rounded=0;orthogonalLoop=1;jettySize=auto;html=1;entryX=0;entryY=0.5;entryDx=0;entryDy=0;" edge="1" parent="1" source="TIjSOUkr8oIotX3kNbCN-4" target="TIjSOUkr8oIotX3kNbCN-5">
          <mxGeometry relative="1" as="geometry" />
        </mxCell>
        <mxCell id="TIjSOUkr8oIotX3kNbCN-15" value="获取菜单栏" style="edgeLabel;html=1;align=center;verticalAlign=middle;resizable=0;points=[];" vertex="1" connectable="0" parent="TIjSOUkr8oIotX3kNbCN-6">
          <mxGeometry x="-0.1263" y="-2" relative="1" as="geometry">
            <mxPoint as="offset" />
          </mxGeometry>
        </mxCell>
        <mxCell id="TIjSOUkr8oIotX3kNbCN-4" value="进入主页面" style="rounded=0;whiteSpace=wrap;html=1;fillColor=#ffe6cc;strokeColor=#d79b00;" vertex="1" parent="1">
          <mxGeometry x="150" y="200" width="120" height="60" as="geometry" />
        </mxCell>
        <mxCell id="TIjSOUkr8oIotX3kNbCN-10" style="rounded=0;orthogonalLoop=1;jettySize=auto;html=1;entryX=1;entryY=0.5;entryDx=0;entryDy=0;dashed=1;" edge="1" parent="1" source="TIjSOUkr8oIotX3kNbCN-5" target="TIjSOUkr8oIotX3kNbCN-9">
          <mxGeometry relative="1" as="geometry" />
        </mxCell>
        <mxCell id="TIjSOUkr8oIotX3kNbCN-11" value="返回302重定向到ips登陆页" style="edgeLabel;html=1;align=center;verticalAlign=middle;resizable=0;points=[];" vertex="1" connectable="0" parent="TIjSOUkr8oIotX3kNbCN-10">
          <mxGeometry x="-0.0139" y="1" relative="1" as="geometry">
            <mxPoint as="offset" />
          </mxGeometry>
        </mxCell>
        <mxCell id="TIjSOUkr8oIotX3kNbCN-5" value="请求获取菜单栏" style="rounded=0;whiteSpace=wrap;html=1;fillColor=#e1d5e7;strokeColor=#9673a6;" vertex="1" parent="1">
          <mxGeometry x="680" y="230" width="120" height="60" as="geometry" />
        </mxCell>
        <mxCell id="TIjSOUkr8oIotX3kNbCN-7" value="ips" style="rounded=1;whiteSpace=wrap;html=1;fillColor=#d5e8d4;strokeColor=#82b366;" vertex="1" parent="1">
          <mxGeometry x="920" y="50" width="120" height="60" as="geometry" />
        </mxCell>
        <mxCell id="TIjSOUkr8oIotX3kNbCN-13" style="edgeStyle=none;rounded=0;orthogonalLoop=1;jettySize=auto;html=1;" edge="1" parent="1" source="TIjSOUkr8oIotX3kNbCN-9" target="TIjSOUkr8oIotX3kNbCN-12">
          <mxGeometry relative="1" as="geometry" />
        </mxCell>
        <mxCell id="TIjSOUkr8oIotX3kNbCN-14" value="用户登陆" style="edgeLabel;html=1;align=center;verticalAlign=middle;resizable=0;points=[];" vertex="1" connectable="0" parent="TIjSOUkr8oIotX3kNbCN-13">
          <mxGeometry x="0.0523" relative="1" as="geometry">
            <mxPoint as="offset" />
          </mxGeometry>
        </mxCell>
        <mxCell id="TIjSOUkr8oIotX3kNbCN-9" value="登陆" style="rounded=0;whiteSpace=wrap;html=1;fillColor=#ffe6cc;strokeColor=#d79b00;" vertex="1" parent="1">
          <mxGeometry x="150" y="340" width="120" height="60" as="geometry" />
        </mxCell>
        <mxCell id="TIjSOUkr8oIotX3kNbCN-17" style="edgeStyle=none;rounded=0;orthogonalLoop=1;jettySize=auto;html=1;entryX=1;entryY=0.5;entryDx=0;entryDy=0;dashed=1;" edge="1" parent="1" source="TIjSOUkr8oIotX3kNbCN-12" target="TIjSOUkr8oIotX3kNbCN-16">
          <mxGeometry relative="1" as="geometry" />
        </mxCell>
        <mxCell id="TIjSOUkr8oIotX3kNbCN-18" value="返回sessionId" style="edgeLabel;html=1;align=center;verticalAlign=middle;resizable=0;points=[];" vertex="1" connectable="0" parent="TIjSOUkr8oIotX3kNbCN-17">
          <mxGeometry x="0.0279" relative="1" as="geometry">
            <mxPoint x="1" as="offset" />
          </mxGeometry>
        </mxCell>
        <mxCell id="TIjSOUkr8oIotX3kNbCN-12" value="请求获取菜单栏" style="rounded=0;whiteSpace=wrap;html=1;fillColor=#d5e8d4;strokeColor=#82b366;" vertex="1" parent="1">
          <mxGeometry x="920" y="360" width="120" height="60" as="geometry" />
        </mxCell>
        <mxCell id="TIjSOUkr8oIotX3kNbCN-20" style="edgeStyle=none;rounded=0;orthogonalLoop=1;jettySize=auto;html=1;" edge="1" parent="1" source="TIjSOUkr8oIotX3kNbCN-16" target="TIjSOUkr8oIotX3kNbCN-19">
          <mxGeometry relative="1" as="geometry" />
        </mxCell>
        <mxCell id="TIjSOUkr8oIotX3kNbCN-16" value="重新获取菜单栏" style="rounded=0;whiteSpace=wrap;html=1;fillColor=#ffe6cc;strokeColor=#d79b00;" vertex="1" parent="1">
          <mxGeometry x="150" y="500" width="120" height="60" as="geometry" />
        </mxCell>
        <mxCell id="TIjSOUkr8oIotX3kNbCN-23" value="返回权限菜单列表" style="edgeStyle=none;rounded=0;orthogonalLoop=1;jettySize=auto;html=1;entryX=1;entryY=0.5;entryDx=0;entryDy=0;dashed=1;" edge="1" parent="1" source="TIjSOUkr8oIotX3kNbCN-19" target="TIjSOUkr8oIotX3kNbCN-21">
          <mxGeometry relative="1" as="geometry" />
        </mxCell>
        <mxCell id="TIjSOUkr8oIotX3kNbCN-19" value="请求获取菜单栏" style="rounded=0;whiteSpace=wrap;html=1;fillColor=#e1d5e7;strokeColor=#9673a6;" vertex="1" parent="1">
          <mxGeometry x="680" y="540" width="120" height="60" as="geometry" />
        </mxCell>
        <mxCell id="TIjSOUkr8oIotX3kNbCN-24" style="edgeStyle=none;rounded=0;orthogonalLoop=1;jettySize=auto;html=1;entryX=0.008;entryY=0.367;entryDx=0;entryDy=0;entryPerimeter=0;" edge="1" parent="1" source="TIjSOUkr8oIotX3kNbCN-21" target="TIjSOUkr8oIotX3kNbCN-22">
          <mxGeometry relative="1" as="geometry" />
        </mxCell>
        <mxCell id="TIjSOUkr8oIotX3kNbCN-21" value="请求活动操作" style="rounded=0;whiteSpace=wrap;html=1;fillColor=#ffe6cc;strokeColor=#d79b00;" vertex="1" parent="1">
          <mxGeometry x="150" y="660" width="120" height="60" as="geometry" />
        </mxCell>
        <mxCell id="TIjSOUkr8oIotX3kNbCN-26" style="edgeStyle=none;rounded=0;orthogonalLoop=1;jettySize=auto;html=1;entryX=0.5;entryY=0;entryDx=0;entryDy=0;" edge="1" parent="1" source="TIjSOUkr8oIotX3kNbCN-22">
          <mxGeometry relative="1" as="geometry">
            <mxPoint x="500" y="840" as="targetPoint" />
          </mxGeometry>
        </mxCell>
        <mxCell id="TIjSOUkr8oIotX3kNbCN-22" value="请求活动操作" style="rounded=0;whiteSpace=wrap;html=1;fillColor=#f8cecc;strokeColor=#b85450;" vertex="1" parent="1">
          <mxGeometry x="440" y="730" width="120" height="60" as="geometry" />
        </mxCell>
        <mxCell id="TIjSOUkr8oIotX3kNbCN-28" value="权限校验" style="edgeStyle=none;rounded=0;orthogonalLoop=1;jettySize=auto;html=1;entryX=0;entryY=0.5;entryDx=0;entryDy=0;exitX=1;exitY=0.5;exitDx=0;exitDy=0;" edge="1" parent="1" source="TIjSOUkr8oIotX3kNbCN-32" target="TIjSOUkr8oIotX3kNbCN-27">
          <mxGeometry relative="1" as="geometry">
            <mxPoint x="554" y="900" as="sourcePoint" />
          </mxGeometry>
        </mxCell>
        <mxCell id="TIjSOUkr8oIotX3kNbCN-34" value="Yes" style="edgeLabel;html=1;align=center;verticalAlign=middle;resizable=0;points=[];" vertex="1" connectable="0" parent="TIjSOUkr8oIotX3kNbCN-28">
          <mxGeometry x="-0.813" y="2" relative="1" as="geometry">
            <mxPoint x="-1" as="offset" />
          </mxGeometry>
        </mxCell>
        <mxCell id="TIjSOUkr8oIotX3kNbCN-31" style="edgeStyle=none;rounded=0;orthogonalLoop=1;jettySize=auto;html=1;entryX=1;entryY=0.5;entryDx=0;entryDy=0;dashed=1;" edge="1" parent="1" source="TIjSOUkr8oIotX3kNbCN-27" target="TIjSOUkr8oIotX3kNbCN-30">
          <mxGeometry relative="1" as="geometry" />
        </mxCell>
        <mxCell id="TIjSOUkr8oIotX3kNbCN-27" value="是否有该接口的访问权限" style="rounded=0;whiteSpace=wrap;html=1;fillColor=#e1d5e7;strokeColor=#9673a6;" vertex="1" parent="1">
          <mxGeometry x="680" y="940" width="120" height="60" as="geometry" />
        </mxCell>
        <mxCell id="TIjSOUkr8oIotX3kNbCN-29" value="重新走上面的流程" style="rounded=0;whiteSpace=wrap;html=1;fillColor=#ffe6cc;strokeColor=#d79b00;" vertex="1" parent="1">
          <mxGeometry x="150" y="950" width="120" height="60" as="geometry" />
        </mxCell>
        <mxCell id="TIjSOUkr8oIotX3kNbCN-39" style="edgeStyle=none;rounded=0;orthogonalLoop=1;jettySize=auto;html=1;entryX=1;entryY=0.5;entryDx=0;entryDy=0;dashed=1;" edge="1" parent="1" source="TIjSOUkr8oIotX3kNbCN-30" target="TIjSOUkr8oIotX3kNbCN-38">
          <mxGeometry relative="1" as="geometry" />
        </mxCell>
        <mxCell id="TIjSOUkr8oIotX3kNbCN-40" value="Yes" style="edgeLabel;html=1;align=center;verticalAlign=middle;resizable=0;points=[];" vertex="1" connectable="0" parent="TIjSOUkr8oIotX3kNbCN-39">
          <mxGeometry x="-0.1155" y="-4" relative="1" as="geometry">
            <mxPoint x="-1" as="offset" />
          </mxGeometry>
        </mxCell>
        <mxCell id="TIjSOUkr8oIotX3kNbCN-42" value="No" style="edgeStyle=none;rounded=0;orthogonalLoop=1;jettySize=auto;html=1;entryX=1;entryY=0.5;entryDx=0;entryDy=0;dashed=1;" edge="1" parent="1" source="TIjSOUkr8oIotX3kNbCN-30" target="TIjSOUkr8oIotX3kNbCN-41">
          <mxGeometry relative="1" as="geometry" />
        </mxCell>
        <mxCell id="TIjSOUkr8oIotX3kNbCN-30" value="有权限？" style="rhombus;whiteSpace=wrap;html=1;fillColor=#f8cecc;strokeColor=#b85450;" vertex="1" parent="1">
          <mxGeometry x="460" y="980" width="80" height="80" as="geometry" />
        </mxCell>
        <mxCell id="TIjSOUkr8oIotX3kNbCN-33" value="" style="edgeStyle=none;rounded=0;orthogonalLoop=1;jettySize=auto;html=1;" edge="1" parent="1" source="TIjSOUkr8oIotX3kNbCN-32" target="TIjSOUkr8oIotX3kNbCN-22">
          <mxGeometry relative="1" as="geometry" />
        </mxCell>
        <mxCell id="TIjSOUkr8oIotX3kNbCN-35" style="edgeStyle=none;rounded=0;orthogonalLoop=1;jettySize=auto;html=1;entryX=1;entryY=0.5;entryDx=0;entryDy=0;dashed=1;" edge="1" parent="1" source="TIjSOUkr8oIotX3kNbCN-32" target="TIjSOUkr8oIotX3kNbCN-29">
          <mxGeometry relative="1" as="geometry" />
        </mxCell>
        <mxCell id="TIjSOUkr8oIotX3kNbCN-36" value="302重定向到登陆页" style="edgeLabel;html=1;align=center;verticalAlign=middle;resizable=0;points=[];" vertex="1" connectable="0" parent="TIjSOUkr8oIotX3kNbCN-35">
          <mxGeometry x="0.0502" y="-2" relative="1" as="geometry">
            <mxPoint y="-1" as="offset" />
          </mxGeometry>
        </mxCell>
        <mxCell id="TIjSOUkr8oIotX3kNbCN-32" value="&lt;span&gt;auth中间件检查是否有sessionId&lt;/span&gt;" style="rhombus;whiteSpace=wrap;html=1;fillColor=#f8cecc;strokeColor=#b85450;" vertex="1" parent="1">
          <mxGeometry x="460" y="840" width="80" height="80" as="geometry" />
        </mxCell>
        <mxCell id="TIjSOUkr8oIotX3kNbCN-38" value="正常操作" style="rounded=0;whiteSpace=wrap;html=1;fillColor=#ffe6cc;strokeColor=#d79b00;" vertex="1" parent="1">
          <mxGeometry x="150" y="1090" width="120" height="60" as="geometry" />
        </mxCell>
        <mxCell id="TIjSOUkr8oIotX3kNbCN-41" value="展示无权限" style="rounded=0;whiteSpace=wrap;html=1;fillColor=#ffe6cc;strokeColor=#d79b00;" vertex="1" parent="1">
          <mxGeometry x="150" y="1190" width="120" height="60" as="geometry" />
        </mxCell>
        <mxCell id="TIjSOUkr8oIotX3kNbCN-43" value="" style="endArrow=none;html=1;strokeColor=#FF3333;" edge="1" parent="1">
          <mxGeometry width="50" height="50" relative="1" as="geometry">
            <mxPoint x="360" y="1282" as="sourcePoint" />
            <mxPoint x="360" y="30" as="targetPoint" />
          </mxGeometry>
        </mxCell>
        <mxCell id="TIjSOUkr8oIotX3kNbCN-44" value="" style="endArrow=none;html=1;strokeColor=#FF3333;" edge="1" parent="1">
          <mxGeometry width="50" height="50" relative="1" as="geometry">
            <mxPoint x="620" y="1282" as="sourcePoint" />
            <mxPoint x="620" y="30" as="targetPoint" />
          </mxGeometry>
        </mxCell>
        <mxCell id="TIjSOUkr8oIotX3kNbCN-45" value="" style="endArrow=none;html=1;strokeColor=#FF3333;" edge="1" parent="1">
          <mxGeometry width="50" height="50" relative="1" as="geometry">
            <mxPoint x="860" y="1282" as="sourcePoint" />
            <mxPoint x="860" y="30" as="targetPoint" />
          </mxGeometry>
        </mxCell>
      </root>
    </mxGraphModel>
  </diagram>
</mxfile>
